#format: frame checksums
#version: 2
#hash: MD5
#extradata 0,                             100, 5444bf01e03182c73ae957179d560f4d
#extradata 1,                             100, 5444bf01e03182c73ae957179d560f4d
#extradata 2,                             100, 5444bf01e03182c73ae957179d560f4d
#extradata 3,                             100, 5444bf01e03182c73ae957179d560f4d
#tb 0: 1/1
#media_type 0: video
#codec_id 0: hevc
#dimensions 0: 1280x720
#sar 0: 0/1
#tb 1: 1/1
#media_type 1: video
#codec_id 1: hevc
#dimensions 1: 1280x720
#sar 1: 0/1
#tb 2: 1/1
#media_type 2: video
#codec_id 2: hevc
#dimensions 2: 1280x720
#sar 2: 0/1
#tb 3: 1/1
#media_type 3: video
#codec_id 3: hevc
#dimensions 3: 1280x720
#sar 3: 0/1
#stream#, dts,        pts, duration,     size, hash
0,          0,          0,        1,   111554, 03ceabfab39afd2e2e796b9362111f32
1,          0,          0,        1,   111481, e5db978adbe4de7ee50fe73abc39fcfa
2,          0,          0,        1,   111451, 08700213113cadbb6628ecb8253c1c2a
3,          0,          0,        1,   111353, 5de942e14c848e5e22fad5d88fb13776
